<svg id="Layer_2" data-name="Layer 2" xmlns="http://www.w3.org/2000/svg" viewBox="0 0 450.67 274.42"><defs><style>.cls-1{fill:#7972ea;}</style></defs><path class="cls-1" d="M500,522.31s-46-92.66-195.33-64.66L360,285s85.33,0,127.33,52L500,501l12.67-164c42-52,127.33-52,127.33-52l55.33,172.67C546,429.65,500,522.31,500,522.31c82-84,225.33-33.33,225.33-33.33l-72-217.33C568,262.31,500,327,500,327s-68-64.67-153.33-55.33L274.67,489S418,438.31,500,522.31Z" transform="translate(-274.67 -270.73)"/><path class="cls-1" d="M500,533c-81-80.33-225.33-28.67-225.33-28.67,121-22.47,178.76,15.32,192.2,26a8.3,8.3,0,0,1,3.13,6.51h0a8.34,8.34,0,0,0,8.34,8.34h43.32a8.34,8.34,0,0,0,8.34-8.34h0a8.3,8.3,0,0,1,3.13-6.51c13.44-10.67,71.19-48.46,192.2-26C725.33,504.31,581,452.65,500,533Z" transform="translate(-274.67 -270.73)"/><path class="cls-1" d="M525.29,348.75l-1.6-1.2c.33-.45,8.46-11.17,27.18-21.77,17.22-9.76,47-21.16,91.14-20.13l0,2c-43.64-1-73,10.2-90,19.81C533.57,337.86,525.37,348.64,525.29,348.75Z" transform="translate(-274.67 -270.73)"/><path class="cls-1" d="M525.29,373.88l-1.6-1.2c.35-.48,9-11.82,28.78-23.05,18.24-10.34,49.79-22.43,96.54-21.33l0,2c-46.23-1.08-77.39,10.82-95.39,21C534.06,362.33,525.37,373.76,525.29,373.88Z" transform="translate(-274.67 -270.73)"/><path class="cls-1" d="M525.29,399.18l-1.6-1.2c.37-.5,9.52-12.56,30.61-24.51,19.4-11,53-23.86,102.71-22.68l0,2c-49.27-1.14-82.49,11.56-101.67,22.43C534.56,387,525.38,399.06,525.29,399.18Z" transform="translate(-274.67 -270.73)"/><path class="cls-1" d="M525.29,424.22l-1.6-1.2c.39-.53,10-13.17,32.1-25.7,20.34-11.53,55.57-25,107.72-23.79l0,2c-51.71-1.21-86.56,12.12-106.69,23.53C535,411.38,525.38,424.09,525.29,424.22Z" transform="translate(-274.67 -270.73)"/><path class="cls-1" d="M525.29,449.71l-1.6-1.2c.42-.57,10.63-14,34.15-27.35,21.66-12.28,59.14-26.64,114.67-25.33l0,2c-55.07-1.29-92.19,12.92-113.63,25.07C535.66,436,525.39,449.57,525.29,449.71Z" transform="translate(-274.67 -270.73)"/><path class="cls-1" d="M474.71,348.75c-.08-.11-8.28-10.89-26.67-21.29-17-9.61-46.39-20.84-90-19.81l-.05-2c44.13-1,73.93,10.37,91.14,20.13,18.72,10.6,26.85,21.32,27.18,21.77Z" transform="translate(-274.67 -270.73)"/><path class="cls-1" d="M474.71,373.88c-.08-.12-8.77-11.55-28.28-22.58-18-10.18-49.17-22.08-95.39-21l-.05-2c46.74-1.11,78.3,11,96.54,21.33,19.82,11.23,28.43,22.57,28.78,23.05Z" transform="translate(-274.67 -270.73)"/><path class="cls-1" d="M474.71,399.18c-.09-.12-9.34-12.29-30.1-24-19.17-10.84-52.35-23.52-101.57-22.37l-.05-2c49.74-1.18,83.31,11.68,102.71,22.68,21.09,11.95,30.24,24,30.61,24.51Z" transform="translate(-274.67 -270.73)"/><path class="cls-1" d="M474.71,424.22c-.09-.13-9.8-12.9-31.59-25.22-20.12-11.38-54.94-24.67-106.58-23.47l-.05-2c52.16-1.23,87.38,12.26,107.72,23.79,22.11,12.53,31.71,25.17,32.1,25.7Z" transform="translate(-274.67 -270.73)"/><path class="cls-1" d="M474.71,449.71c-.1-.14-10.44-13.75-33.65-26.88-21.43-12.12-58.53-26.28-113.52-25l-.05-2c55.55-1.31,93,13.05,114.67,25.33,23.52,13.33,33.73,26.78,34.15,27.35Z" transform="translate(-274.67 -270.73)"/></svg>